<?xml version="1.0" encoding="UTF-8" standalone="no"?>
<!-- Created with Inkscape (http://www.inkscape.org/) -->

<svg
   xmlns:dc="http://purl.org/dc/elements/1.1/"
   xmlns:cc="http://creativecommons.org/ns#"
   xmlns:rdf="http://www.w3.org/1999/02/22-rdf-syntax-ns#"
   xmlns:svg="http://www.w3.org/2000/svg"
   xmlns="http://www.w3.org/2000/svg"
   xmlns:sodipodi="http://sodipodi.sourceforge.net/DTD/sodipodi-0.dtd"
   xmlns:inkscape="http://www.inkscape.org/namespaces/inkscape"
   version="1.1"
   id="svg2"
   width="161"
   height="148"
   viewBox="0 0 160 148"
   sodipodi:docname="logo_b.svg"
   inkscape:version="0.92.3 (2405546, 2018-03-11)">
  <metadata
     id="metadata8">
    <rdf:RDF>
      <cc:Work
         rdf:about="">
        <dc:format>image/svg+xml</dc:format>
        <dc:type
           rdf:resource="http://purl.org/dc/dcmitype/StillImage" />
        <dc:title></dc:title>
      </cc:Work>
    </rdf:RDF>
  </metadata>
  <defs
     id="defs6" />
  <sodipodi:namedview
     pagecolor="#ffffff"
     bordercolor="#666666"
     borderopacity="1"
     objecttolerance="10"
     gridtolerance="10"
     guidetolerance="10"
     inkscape:pageopacity="0"
     inkscape:pageshadow="2"
     inkscape:window-width="1366"
     inkscape:window-height="714"
     id="namedview4"
     showgrid="false"
     fit-margin-top="0"
     fit-margin-left="0"
     fit-margin-right="0"
     fit-margin-bottom="0"
     inkscape:zoom="3"
     inkscape:cx="25"
     inkscape:cy="90"
     inkscape:window-x="0"
     inkscape:window-y="28"
     inkscape:window-maximized="1"
     inkscape:current-layer="svg2" />
  <g
     id="g12"
     transform="translate(-6,-10)">
    <path
       style="fill:#e0e1ae;stroke-width:0.32"
       d="m 80,158 c -4"
       id="path24"
       inkscape:connector-curvature="0" />
    <path
       style="fill:#a2dbf2;stroke-width:0.32"
       d="m 80,158 c -4"
       id="path22"
       inkscape:connector-curvature="0" />
    <path
       style="fill:#90db55;stroke-width:0.32"
       d="m 80,158 c -4"
       id="path20"
       inkscape:connector-curvature="0" />
    var lineDrawing = anime({
       targets: '#g12',
       strokeDashoffset: [anime.setDashoffset, 0],
       duration: 5000
    });
    <path
       style="fill:#81d73d;stroke-width:0.32"
       d="m 78.6,157 c -3.5,-0.5 -6.7,-1.3 -9.6,-2.2 -1.2,-0.5 -4,-1.2 -5.6,-1.6 -5,-1.3 -14.1,-5.3 -19.4,-8.8 C 33.6,138 25,129 18.9,119.5 c -2.6,-4.3 -5.4,-9.6 -5.9,-11.5 -0.3,-1 -1,-2.8 -1.5,-3.8 -0.5,-1.1 -1.4,-3.8 -1.9,-6 C 9,96 8.4,93 8.1,92.2 7.4,89.3 7,85.2 6.8,77.2 6.7,71 6.8,69.8 7.3,65.7 7.7,63.2 8.2,60.5 8.5,59.9 8.8,59.2 9.3,57.5 9.6,56 c 0.4,-1.5 1.1,-3.9 1.7,-5.3 0.7,-1.4 1.3,-3.3 1.6,-4.3 0.9,-2.8 5.2,-10.6 8.3,-14.9 5.6,-7.7 13,-15 19.4,-19.5 2.5,-1.7 3.3,-1.6 5,0.2 1.6,1.7 2,2.6 2,4.6 0,1.4 -0.13,1.6 -1.5,3 -0.9,0.8 -2.5,2.2 -3.6,3 -3,2.3 -8.4,7.5 -10.5,10.3 -3,3.9 -5.9,8.1 -6.7,9.9 -0.4,1 -1.2,2.3 -1.6,3 -0.5,0.7 -1.2,2.3 -1.6,3.4 -0.4,1.2 -1.2,3.1 -1.7,4.2 -0.5,1.2 -1.6,5.2 -2.4,9 -2.6,11.9 -2.6,17.9 0.1,29.7 0.9,4 2,8 2.5,9 0.5,1 1,2.6 1.5,3.5 0.3,1 1,2.4 1.5,3.2 0.5,0.8 1.4,2.6 2.1,3.9 2.1,4 6.9,10.4 10.7,14.3 6.5,6.6 15,12.4 22,15.1 1.4,0.6 3,1.2 3.5,1.5 0.5,0.3 2.1,0.8 3.6,1.2 1.4,0.4 4,1.1 5.6,1.6 9.5,2.6 23,2.5 32.2,-0.3 2,-0.6 4.3,-1.2 5.1,-1.5 0.9,-0.2 2.1,-0.7 2.8,-1 0.7,-0.3 2.5,-1.1 4,-1.7 6.9,-2.75 15.2,-8.5 21.4,-14.7 3.9,-3.9 8.7,-10.3 10.7,-14.2 0.5,-1 1.4,-2.6 2,-3.6 0.6,-1 1.4,-2.6 1.7,-3.5 0.3,-1 0.9,-2.3 1.3,-3.1 1.1,-2.2 4,-14.3 4.5,-18.7 0.5,-4.5 0.6,-4.9 1.8,-5.5 1,-0.5 4.3,-0.6 6.5,-0.3 l 1.2,0.2 v 6.2 c 0,5.5 -0.1,6.5 -0.8,9 -0.4,1.6 -1,3.2 -1.2,3.6 -0.2,0.4 -0.7,2 -1.2,3.6 -0.4,1.6 -1.3,4 -1.9,5.3 -0.6,1.3 -1.3,3 -1.5,3.7 -0.5,1.4 -3.4,7 -5.3,10 -3.1,4.9 -6.3,9 -11.8,14.7 -3,3 -8.8,7.7 -13.5,10.8 -5.7,3.7 -14.4,7.6 -20,9 -2,0.4 -4,1.1 -5.1,1.5 -1.1,0.4 -3.2,0.8 -5.1,1 -4.1,0.3 -8.7,0.8 -11.4,1.2 -2.5,0.4 -6.4,0.4 -9.1,-0.1 z m -1,-21.4 c -6.5,-1.2 -11.3,-2.7 -16.5,-5.3 -2.7,-1.3 -6,-3.1 -7.1,-4 -1.2,-0.9 -3.2,-2.2 -4.4,-3.1 -3.4,-2.4 -7.5,-6.7 -11.7,-12.6 -1,-1.3 -2,-2.9 -2.3,-3.6 -0.4,-0.7 -1.1,-2 -1.6,-2.8 -0.5,-0.8 -1.2,-2.2 -1.5,-3.1 -0.3,-0.9 -1,-2.5 -1.5,-3.5 -0.6,-1.2 -1.4,-3.9 -2.2,-7.7 -2.5,-11.9 -2.5,-15.5 0.3,-27.7 1.5,-6.3 3.9,-11.2 5.6,-11.2 2.6,0 6,2.6 6,4.6 0,0.6 -0.5,2.2 -1.1,3.5 -0.7,1.5 -1.6,4.3 -2.3,7.5 -1.1,4.7 -1.2,5.5 -1.2,10.1 -0,4.4 0.1,5.5 1.1,10 0.6,2.8 1.3,5.6 1.5,6.2 1,2.3 3.4,8 4.1,8.8 0.4,0.5 1,1.6 1.4,2.3 0.9,1.7 3.5,5.3 5.6,7.4 2.1,2.2 7,6.3 8.3,7 0.6,0.3 1.4,0.9 1.9,1.3 0.5,0.4 2.7,1.6 5,2.7 3.3,1.6 5.2,2.3 9.7,3.4 5.1,1.3 6,1.5 10.6,1.6 5.4,0.2 7.3,-0.1 14.6,-1.9 9.5,-2.4 20.1,-9.2 26.1,-17 2.2,-2.9 5.4,-8 6.2,-10 0.5,-1.1 1.2,-2.7 1.6,-3.5 0.8,-1.6 2.7,-9 3,-13 0.5,-3.2 1,-4.1 2.6,-4.5 1.6,-0.4 4.3,-0.1 5.3,0.7 1.5,1.2 1.4,3.8 -0.7,12.8 -0.7,3 -1.5,5.8 -2.1,6.9 -0.5,1.1 -1.2,2.7 -1.6,3.6 -2.2,6.4 -11.5,17.8 -18.5,23 -2.8,2 -7,4.4 -11.1,6.4 -4.1,2 -10.8,4 -16.1,4.8 -4.3,0.7 -13,0.7 -17.1,-0.1 z m 6.2,-18.8 c -0.6,-0.1 -3.4,-0.7 -6.1,-1.3 -4.1,-1 -5.5,-1.4 -8.5,-3 -5,-2.5 -7.7,-4.5 -11.2,-8.2 C 55.3,102 51.2,96.5 51.2,95.6 c 0,-0.2 -0.6,-1.5 -1.3,-3 -1,-2 -1.5,-3.6 -2.2,-7 -0.5,-2.5 -0.8,-4.8 -0.7,-5.3 0.5,-2.2 3.3,-3.5 6.2,-2.8 2.8,0.7 3.3,1.6 4.3,6.9 0.9,4.9 4.8,11.4 9.4,15.5 6.6,6 16.5,8.5 25.6,6.6 4.3,-0.9 6.4,-1.7 9.4,-3.5 4.9,-3 8.6,-6.7 10.6,-10.6 0.6,-1.1 1.4,-2.7 1.8,-3.4 0.4,-0.8 1,-3 1.5,-5.1 0.4,-2.1 1,-4.2 1.4,-4.6 2,-2.7 7.4,-2.6 8.6,0.1 0.7,1.5 0.6,2.2 -0.4,6.9 -0.7,3.2 -1.2,4.8 -2.7,7.8 -2.3,4.7 -4.2,7.4 -8,11.2 -3.7,3.7 -6,5.4 -10.7,7.8 -3,1.5 -4.4,2 -8.5,3 -4.8,1.1 -9.1,1.6 -11.5,1.3 z"
       id="path18"
       inkscape:connector-curvature="0" />
    <path
       style="fill:#07a2de;stroke-width:0.32"
       d="m 79,157 c -3.5,-0.54126 -6.685632,-1.26795 -9.6,-2.1905 -1.584,-0.50141 -4.104,-1.21687 -5.6,-1.58991 -5.138224,-1.28125 -14.058518,-5.34059 -19.421981,-8.8383 C 33.57591,137.994 24.741143,129.10161 18.869995,119.52001 c -2.613868,-4.26579 -5.37153,-9.62039 -5.911933,-11.47931 -0.298545,-1.02696 -0.959204,-2.75702 -1.468131,-3.84457 -0.508927,-1.08755 -1.362129,-3.77258 -1.8960052,-5.966745 C 9.0600499,96.035228 8.3914048,93.304006 8.1080474,92.160005 7.3982986,89.29453 7.0506867,85.186402 6.842399,77.202385 6.6892374,71.331441 6.757528,69.766967 7.3433446,65.726225 7.7164,63.153028 8.2415091,60.523959 8.5102538,59.883844 8.7789984,59.243731 9.2850227,57.496003 9.634752,56.000003 c 0.3497293,-1.496 1.130236,-3.872 1.73446,-5.28 0.604223,-1.408 1.329415,-3.337901 1.611538,-4.288669 0.827492,-2.788691 5.193201,-10.595908 8.310861,-14.862351 5.605827,-7.671439 13.04301,-15.123889 19.410831,-19.450675 2.462486,-1.673203 3.327564,-1.638063 5.025657,0.204148 1.586058,1.720671 1.951901,2.581045 1.951901,4.590406 0,1.384763 -0.127171,1.633244 -1.52,2.96994 -0.836,0.802308 -2.45345,2.16305 -3.59433,3.023869 -3.003676,2.266339 -8.371555,7.532285 -10.493638,10.294368 -2.986611,3.887344 -5.827321,8.123008 -6.652224,9.918852 -0.424402,0.923939 -1.146793,2.274172 -1.605314,3.000515 -0.458521,0.726346 -1.191831,2.274394 -1.629578,3.440112 -0.437746,1.165715 -1.203061,3.055485 -1.700699,4.199485 -0.500572,1.150743 -1.574373,5.1537 -2.403541,8.960001 -2.586766,11.87457 -2.562913,17.860788 0.118367,29.705662 0.889645,3.930116 1.997362,7.962114 2.461594,8.960004 0.464231,0.99788 1.117039,2.59154 1.450683,3.54145 0.333645,0.94991 0.986548,2.38991 1.450896,3.2 0.464348,0.81009 1.401946,2.55289 2.083552,3.87289 2.068811,4.00646 6.852453,10.36487 10.749608,14.28837 6.51945,6.5635 14.959251,12.38222 21.965571,15.14387 1.386522,0.54652 2.962218,1.22186 3.501552,1.50076 0.539331,0.2789 2.140906,0.82957 3.559053,1.22372 1.418147,0.39414 3.946448,1.09575 5.618448,1.55913 9.45951,2.6216 22.95727,2.50304 32.16,-0.28248 1.936,-0.58599 4.24,-1.24148 5.12,-1.45664 0.88,-0.21515 2.14307,-0.66243 2.80682,-0.99394 0.66374,-0.33151 2.45203,-1.10476 3.97397,-1.71832 6.81317,-2.74669 15.15027,-8.48585 21.38689,-14.72248 3.86459,-3.86458 8.7065,-10.29264 10.71268,-14.22199 0.49422,-0.968 1.4109,-2.60653 2.03707,-3.64119 0.62617,-1.03465 1.37982,-2.61865 1.67478,-3.52 0.29496,-0.90135 0.86477,-2.29513 1.26625,-3.09729 1.10664,-2.211079 3.98652,-14.279544 4.46271,-18.701525 0.48608,-4.513815 0.59149,-4.836346 1.78172,-5.451837 0.94056,-0.486381 4.28168,-0.622349 6.45711,-0.262771 l 1.2,0.198345 v 6.175041 c 0,5.501088 -0.0835,6.487062 -0.76509,9.033946 -0.4208,1.572397 -0.94051,3.186672 -1.15491,3.587277 -0.2144,0.400605 -0.73902,2.033257 -1.16583,3.628114 -0.42682,1.59486 -1.25919,3.98698 -1.84972,5.31582 -0.59053,1.32883 -1.25418,2.98457 -1.47479,3.6794 -0.45531,1.43409 -3.38607,7.00906 -5.28221,10.04798 -3.05687,4.89919 -6.34854,9.00297 -11.80748,14.72059 -2.90478,3.04242 -8.77208,7.72997 -13.45997,10.75354 -5.68768,3.6684 -14.44263,7.6127 -19.91313,8.97131 -1.71978,0.42711 -3.99087,1.08966 -5.04687,1.47231 -1.13129,0.40995 -3.23452,0.79982 -5.12,0.9491 -4.104838,0.32498 -8.717578,0.82988 -11.36,1.24344 -2.461878,0.3853 -6.440618,0.36289 -9.12,-0.0514 z m 5.28,-40.13942 c -0.616,-0.0811 -3.352,-0.65305 -6.08,-1.27093 -4.13664,-0.93694 -5.54432,-1.41851 -8.48,-2.90101 -4.965706,-2.50766 -7.693552,-4.49466 -11.232954,-8.18221 C 55.296064,102.01054 51.2,96.462268 51.2,95.602095 c 0,-0.180326 -0.593894,-1.493453 -1.319766,-2.918054 -1.002631,-1.96778 -1.539623,-3.645885 -2.234717,-6.983524 -0.522832,-2.510486 -0.833786,-4.799165 -0.725565,-5.340272 0.448038,-2.240196 3.346963,-3.529108 6.246042,-2.777095 2.791721,0.724163 3.345792,1.617421 4.272444,6.887965 0.85497,4.862845 4.812932,11.375803 9.39898,15.46634 6.623891,5.908195 16.538774,8.477785 25.592633,6.632735 4.285485,-0.87333 6.380314,-1.6508 9.426269,-3.49843 4.85563,-2.94534 8.61431,-6.697844 10.60921,-10.591755 0.58609,-1.144 1.37512,-2.673731 1.7534,-3.399405 0.37828,-0.72567 1.04167,-3.02967 1.47421,-5.12 0.4,-2.1 1.04781,-4.2 1.4,-4.6 2,-2.7 7.4,-2.6 8.6,0.1 0.7,1.59 0.6,2.2 -0.4,7 -0.7,3 -1.2,4.8 -2.7,7.8 -2,4.7 -4.2,7.4 -8,11.2 -3.7,3.7 -6,5.4 -10.7,7.8 -2.9,1.5 -4.4,2 -8.5,2.9 -4.8,1.1 -9.1,1.6 -11.5,1.3 z"
       id="path16"
       inkscape:connector-curvature="0" />
    <path
       style="fill:#fe6c01;stroke-width:0.32"
       d="m 84, 117 c -0.6,-0.1 -3,-0.6 -6,-1.3 -4,-1 -5.5,-1.4 -8.5,-3 -5,-2.5 -7.7,-4.5 -11,-8.2 C 55.3,102 51.2,96.5 51.2,95.6 c 0,-0.2 -0.6,-1.5 -1,-3 -1,-2 -1.5,-3.6 -2.2,-7 -0.5,-2.5 -0.8,-4.8 -0.7,-5.3 0.4,-2.2 3.3,-3.5 6.3,-2.8 2.8,0.7 3.3,1.6 4.3,6.9 0.9,4.9 4.9,11.4 9.4,15.5 6.6,5.9 16.5,8.5 25.6,6.7 4.3,-0.9 6.4,-1.7 9.4,-3.5 5,-3 8.6,-6.7 10.6,-10.6 0.6,-1.1 1.4,-2.7 1.8,-3.4 0.4,-0.8 1,-3 1.5,-5.1 0.4,-2.1 1,-4.2 1.4,-4.6 2,-2.7 7.4,-2.6 8.6,0.1 0.6,1.5 0.6,2.2 -0.4,6.9 -0.7,3.2 -1.2,4.8 -2.7,7.8 -2.3,4.8 -4.2,7.4 -8,11.2 -3.7,3.7 -6,5.4 -10.8,7.8 -3,1.5 -4.4,2 -8.5,3 -4.8,1.1 -9.2,1.6 -11.5,1.3 z"
       id="path14"
       inkscape:connector-curvature="0" />
  </g>
</svg>
